{"scene":0,"asset":{"generator":"ImageToStl.com","version":"2.0"},"scenes":[{"name":"Scene","nodes":[0]}],"nodes":[{"name":"Node0","children":[1]},{"name":"Node1","children":[2]},{"name":"Node2","mesh":0,"children":[3,4,5,6,7,8,9,10,11,12,13,14,15,16,17,18,19,20,21,22,23,24,25,26,27,28,29,30,31]},{"name":"Node3","mesh":1},{"name":"Node4","mesh":2},{"name":"Node5","mesh":3},{"name":"Node6","mesh":4},{"name":"Node7","mesh":5},{"name":"Node8","mesh":6},{"name":"Node9","mesh":7},{"name":"Node10","mesh":8},{"name":"Node11","mesh":9},{"name":"Node12","mesh":10},{"name":"Node13","mesh":11},{"name":"Node14","mesh":12},{"name":"Node15","mesh":13},{"name":"Node16","mesh":14},{"name":"Node17","mesh":15},{"name":"Node18","mesh":16},{"name":"Node19","mesh":17},{"name":"Node20","mesh":18},{"name":"Node21","mesh":19},{"name":"Node22","mesh":20},{"name":"Node23","mesh":21},{"name":"Node24","mesh":22},{"name":"Node25","mesh":23},{"name":"Node26","mesh":24},{"name":"Node27","mesh":25},{"name":"Node28","mesh":26},{"name":"Node29","mesh":27},{"name":"Node30","mesh":28},{"name":"Node31","mesh":29}],"materials":[{"name":"x1","pbrMetallicRoughness":{"baseColorFactor":[0.75,0.75,0.75,1.0],"metallicFactor":0.0,"roughnessFactor":1.0},"doubleSided":true}],"meshes":[{"name":"Mesh0","primitives":[{"indices":1,"material":0,"attributes":{"POSITION":0}}]},{"name":"Mesh0","primitives":[{"indices":3,"material":0,"attributes":{"POSITION":2}}]},{"name":"Mesh0","primitives":[{"indices":5,"material":0,"attributes":{"POSITION":4}}]},{"name":"Mesh0","primitives":[{"indices":7,"material":0,"attributes":{"POSITION":6}}]},{"name":"Mesh0","primitives":[{"indices":9,"material":0,"attributes":{"POSITION":8}}]},{"name":"Mesh0","primitives":[{"indices":11,"material":0,"attributes":{"POSITION":10}}]},{"name":"Mesh0","primitives":[{"indices":13,"material":0,"attributes":{"POSITION":12}}]},{"name":"Mesh0","primitives":[{"indices":15,"material":0,"attributes":{"POSITION":14}}]},{"name":"Mesh0","primitives":[{"indices":17,"material":0,"attributes":{"POSITION":16}}]},{"name":"Mesh0","primitives":[{"indices":19,"material":0,"attributes":{"POSITION":18}}]},{"name":"Mesh0","primitives":[{"indices":21,"material":0,"attributes":{"POSITION":20}}]},{"name":"Mesh0","primitives":[{"indices":23,"material":0,"attributes":{"POSITION":22}}]},{"name":"Mesh0","primitives":[{"indices":25,"material":0,"attributes":{"POSITION":24}}]},{"name":"Mesh0","primitives":[{"indices":27,"material":0,"attributes":{"POSITION":26}}]},{"name":"Mesh0","primitives":[{"indices":29,"material":0,"attributes":{"POSITION":28}}]},{"name":"Mesh0","primitives":[{"indices":31,"material":0,"attributes":{"POSITION":30}}]},{"name":"Mesh0","primitives":[{"indices":33,"material":0,"attributes":{"POSITION":32}}]},{"name":"Mesh0","primitives":[{"indices":35,"material":0,"attributes":{"POSITION":34}}]},{"name":"Mesh0","primitives":[{"indices":37,"material":0,"attributes":{"POSITION":36}}]},{"name":"Mesh0","primitives":[{"indices":39,"material":0,"attributes":{"POSITION":38}}]},{"name":"Mesh0","primitives":[{"indices":41,"material":0,"attributes":{"POSITION":40}}]},{"name":"Mesh0","primitives":[{"indices":43,"material":0,"attributes":{"POSITION":42}}]},{"name":"Mesh0","primitives":[{"indices":45,"material":0,"attributes":{"POSITION":44}}]},{"name":"Mesh0","primitives":[{"indices":47,"material":0,"attributes":{"POSITION":46}}]},{"name":"Mesh0","primitives":[{"indices":49,"material":0,"attributes":{"POSITION":48}}]},{"name":"Mesh0","primitives":[{"indices":51,"material":0,"attributes":{"POSITION":50}}]},{"name":"Mesh0","primitives":[{"indices":53,"material":0,"attributes":{"POSITION":52}}]},{"name":"Mesh0","primitives":[{"indices":55,"material":0,"attributes":{"POSITION":54}}]},{"name":"Mesh0","primitives":[{"indices":57,"material":0,"attributes":{"POSITION":56}}]},{"name":"Mesh0","primitives":[{"indices":59,"material":0,"attributes":{"POSITION":58}}]}],"accessors":[{"bufferView":0,"componentType":5126,"count":32468,"type":"VEC3","min":[-149.0,-93.79388,-1.0],"max":[152.0,120.0,43.26146]},{"bufferView":1,"componentType":5123,"count":195900,"type":"SCALAR"},{"bufferView":2,"componentType":5126,"count":124,"type":"VEC3","min":[96.02235,90.25889,20.86471],"max":[106.0224,94.06515,31.04939]},{"bufferView":3,"componentType":5123,"count":732,"type":"SCALAR"},{"bufferView":4,"componentType":5126,"count":57526,"type":"VEC3","min":[-149.8184,-93.94892,43.0],"max":[151.8184,95.94891,48.0]},{"bufferView":5,"componentType":5123,"count":354012,"type":"SCALAR"},{"bufferView":6,"componentType":5126,"count":124,"type":"VEC3","min":[-71.92872,11.34354,46.0],"max":[-68.92872,14.33969,47.0]},{"bufferView":7,"componentType":5123,"count":732,"type":"SCALAR"},{"bufferView":8,"componentType":5126,"count":124,"type":"VEC3","min":[-67.81843,15.50193,46.0],"max":[-64.81843,18.49807,47.0]},{"bufferView":9,"componentType":5123,"count":732,"type":"SCALAR"},{"bufferView":10,"componentType":5126,"count":124,"type":"VEC3","min":[-63.92873,19.34354,46.0],"max":[-60.92872,22.33969,47.0]},{"bufferView":11,"componentType":5123,"count":732,"type":"SCALAR"},{"bufferView":12,"componentType":5126,"count":124,"type":"VEC3","min":[-59.81843,15.50193,46.0],"max":[-56.81843,18.49807,47.0]},{"bufferView":13,"componentType":5123,"count":732,"type":"SCALAR"},{"bufferView":14,"componentType":5126,"count":450,"type":"VEC3","min":[-102.1367,71.97401,17.70109],"max":[7.863344,94.39578,36.12994]},{"bufferView":15,"componentType":5123,"count":2688,"type":"SCALAR"},{"bufferView":16,"componentType":5126,"count":120,"type":"VEC3","min":[18.82409,71.97401,17.70109],"max":[36.82409,94.39578,36.12994]},{"bufferView":17,"componentType":5123,"count":708,"type":"SCALAR"},{"bufferView":18,"componentType":5126,"count":80,"type":"VEC3","min":[70.97011,71.97401,17.70109],"max":[85.97011,94.39578,36.12994]},{"bufferView":19,"componentType":5123,"count":468,"type":"SCALAR"},{"bufferView":20,"componentType":5126,"count":173,"type":"VEC3","min":[50.2274,71.05257,12.78673],"max":[59.2274,94.39578,36.12994]},{"bufferView":21,"componentType":5123,"count":1026,"type":"SCALAR"},{"bufferView":22,"componentType":5126,"count":920,"type":"VEC3","min":[77.47011,87.93564,24.31541],"max":[79.47011,93.09994,27.08168]},{"bufferView":23,"componentType":5123,"count":5508,"type":"SCALAR"},{"bufferView":24,"componentType":5126,"count":2777,"type":"VEC3","min":[-131.1327,105.2694,11.98609],"max":[-111.1327,125.2694,169.156]},{"bufferView":25,"componentType":5123,"count":16674,"type":"SCALAR"},{"bufferView":26,"componentType":5126,"count":2766,"type":"VEC3","min":[113.1327,105.2694,11.98609],"max":[133.1327,125.2694,169.156]},{"bufferView":27,"componentType":5123,"count":16608,"type":"SCALAR"},{"bufferView":28,"componentType":5126,"count":8,"type":"VEC3","min":[-120.8844,-29.14353,16.0],"max":[-81.95021,-6.784775,41.0]},{"bufferView":29,"componentType":5123,"count":36,"type":"SCALAR"},{"bufferView":30,"componentType":5126,"count":8,"type":"VEC3","min":[-91.68376,11.45527,16.0],"max":[-28.56311,31.46047,41.0]},{"bufferView":31,"componentType":5123,"count":36,"type":"SCALAR"},{"bufferView":32,"componentType":5126,"count":8,"type":"VEC3","min":[14.79548,-54.73842,16.0],"max":[45.47093,4.100412,41.0]},{"bufferView":33,"componentType":5123,"count":36,"type":"SCALAR"},{"bufferView":34,"componentType":5126,"count":8,"type":"VEC3","min":[37.80207,15.57399,16.0],"max":[72.017,59.11472,41.0]},{"bufferView":35,"componentType":5123,"count":36,"type":"SCALAR"},{"bufferView":36,"componentType":5126,"count":124,"type":"VEC3","min":[-89.3169,-56.07123,47.3],"max":[-83.3169,-50.07893,48.0]},{"bufferView":37,"componentType":5123,"count":732,"type":"SCALAR"},{"bufferView":38,"componentType":5126,"count":124,"type":"VEC3","min":[-75.6171,-56.07123,47.3],"max":[-69.6171,-50.07893,48.0]},{"bufferView":39,"componentType":5123,"count":732,"type":"SCALAR"},{"bufferView":40,"componentType":5126,"count":124,"type":"VEC3","min":[-61.91731,-56.07123,47.3],"max":[-55.9173,-50.07893,48.0]},{"bufferView":41,"componentType":5123,"count":732,"type":"SCALAR"},{"bufferView":42,"componentType":5126,"count":124,"type":"VEC3","min":[-48.21751,-56.07123,47.3],"max":[-42.21751,-50.07893,48.0]},{"bufferView":43,"componentType":5123,"count":732,"type":"SCALAR"},{"bufferView":44,"componentType":5126,"count":124,"type":"VEC3","min":[-34.51771,-56.07123,47.3],"max":[-28.51771,-50.07893,48.0]},{"bufferView":45,"componentType":5123,"count":732,"type":"SCALAR"},{"bufferView":46,"componentType":5126,"count":124,"type":"VEC3","min":[-20.81791,-56.07123,47.3],"max":[-14.81791,-50.07893,48.0]},{"bufferView":47,"componentType":5123,"count":732,"type":"SCALAR"},{"bufferView":48,"componentType":5126,"count":124,"type":"VEC3","min":[-7.118111,-56.07123,47.3],"max":[-1.118111,-50.07893,48.0]},{"bufferView":49,"componentType":5123,"count":732,"type":"SCALAR"},{"bufferView":50,"componentType":5126,"count":124,"type":"VEC3","min":[6.581688,-56.07123,47.3],"max":[12.58169,-50.07893,48.0]},{"bufferView":51,"componentType":5123,"count":732,"type":"SCALAR"},{"bufferView":52,"componentType":5126,"count":124,"type":"VEC3","min":[20.28149,-56.07123,47.3],"max":[26.28149,-50.07893,48.0]},{"bufferView":53,"componentType":5123,"count":732,"type":"SCALAR"},{"bufferView":54,"componentType":5126,"count":124,"type":"VEC3","min":[33.98129,-56.07123,47.3],"max":[39.98129,-50.07893,48.0]},{"bufferView":55,"componentType":5123,"count":732,"type":"SCALAR"},{"bufferView":56,"componentType":5126,"count":124,"type":"VEC3","min":[47.68108,-56.07123,47.3],"max":[53.68108,-50.07893,48.0]},{"bufferView":57,"componentType":5123,"count":732,"type":"SCALAR"},{"bufferView":58,"componentType":5126,"count":124,"type":"VEC3","min":[61.38088,-56.07123,47.3],"max":[67.38088,-50.07893,48.0]},{"bufferView":59,"componentType":5123,"count":732,"type":"SCALAR"}],"bufferViews":[{"target":34962,"buffer":0,"byteLength":389616,"byteOffset":0},{"target":34963,"buffer":0,"byteLength":391800,"byteOffset":389616},{"target":34962,"buffer":0,"byteLength":1488,"byteOffset":781416},{"target":34963,"buffer":0,"byteLength":1464,"byteOffset":782904},{"target":34962,"buffer":0,"byteLength":690312,"byteOffset":784368},{"target":34963,"buffer":0,"byteLength":708024,"byteOffset":1474680},{"target":34962,"buffer":0,"byteLength":1488,"byteOffset":2182704},{"target":34963,"buffer":0,"byteLength":1464,"byteOffset":2184192},{"target":34962,"buffer":0,"byteLength":1488,"byteOffset":2185656},{"target":34963,"buffer":0,"byteLength":1464,"byteOffset":2187144},{"target":34962,"buffer":0,"byteLength":1488,"byteOffset":2188608},{"target":34963,"buffer":0,"byteLength":1464,"byteOffset":2190096},{"target":34962,"buffer":0,"byteLength":1488,"byteOffset":2191560},{"target":34963,"buffer":0,"byteLength":1464,"byteOffset":2193048},{"target":34962,"buffer":0,"byteLength":5400,"byteOffset":2194512},{"target":34963,"buffer":0,"byteLength":5376,"byteOffset":2199912},{"target":34962,"buffer":0,"byteLength":1440,"byteOffset":2205288},{"target":34963,"buffer":0,"byteLength":1416,"byteOffset":2206728},{"target":34962,"buffer":0,"byteLength":960,"byteOffset":2208144},{"target":34963,"buffer":0,"byteLength":936,"byteOffset":2209104},{"target":34962,"buffer":0,"byteLength":2076,"byteOffset":2210040},{"target":34963,"buffer":0,"byteLength":2052,"byteOffset":2212116},{"target":34962,"buffer":0,"byteLength":11040,"byteOffset":2214168},{"target":34963,"buffer":0,"byteLength":11016,"byteOffset":2225208},{"target":34962,"buffer":0,"byteLength":33324,"byteOffset":2236224},{"target":34963,"buffer":0,"byteLength":33348,"byteOffset":2269548},{"target":34962,"buffer":0,"byteLength":33192,"byteOffset":2302896},{"target":34963,"buffer":0,"byteLength":33216,"byteOffset":2336088},{"target":34962,"buffer":0,"byteLength":96,"byteOffset":2369304},{"target":34963,"buffer":0,"byteLength":72,"byteOffset":2369400},{"target":34962,"buffer":0,"byteLength":96,"byteOffset":2369472},{"target":34963,"buffer":0,"byteLength":72,"byteOffset":2369568},{"target":34962,"buffer":0,"byteLength":96,"byteOffset":2369640},{"target":34963,"buffer":0,"byteLength":72,"byteOffset":2369736},{"target":34962,"buffer":0,"byteLength":96,"byteOffset":2369808},{"target":34963,"buffer":0,"byteLength":72,"byteOffset":2369904},{"target":34962,"buffer":0,"byteLength":1488,"byteOffset":2369976},{"target":34963,"buffer":0,"byteLength":1464,"byteOffset":2371464},{"target":34962,"buffer":0,"byteLength":1488,"byteOffset":2372928},{"target":34963,"buffer":0,"byteLength":1464,"byteOffset":2374416},{"target":34962,"buffer":0,"byteLength":1488,"byteOffset":2375880},{"target":34963,"buffer":0,"byteLength":1464,"byteOffset":2377368},{"target":34962,"buffer":0,"byteLength":1488,"byteOffset":2378832},{"target":34963,"buffer":0,"byteLength":1464,"byteOffset":2380320},{"target":34962,"buffer":0,"byteLength":1488,"byteOffset":2381784},{"target":34963,"buffer":0,"byteLength":1464,"byteOffset":2383272},{"target":34962,"buffer":0,"byteLength":1488,"byteOffset":2384736},{"target":34963,"buffer":0,"byteLength":1464,"byteOffset":2386224},{"target":34962,"buffer":0,"byteLength":1488,"byteOffset":2387688},{"target":34963,"buffer":0,"byteLength":1464,"byteOffset":2389176},{"target":34962,"buffer":0,"byteLength":1488,"byteOffset":2390640},{"target":34963,"buffer":0,"byteLength":1464,"byteOffset":2392128},{"target":34962,"buffer":0,"byteLength":1488,"byteOffset":2393592},{"target":34963,"buffer":0,"byteLength":1464,"byteOffset":2395080},{"target":34962,"buffer":0,"byteLength":1488,"byteOffset":2396544},{"target":34963,"buffer":0,"byteLength":1464,"byteOffset":2398032},{"target":34962,"buffer":0,"byteLength":1488,"byteOffset":2399496},{"target":34963,"buffer":0,"byteLength":1464,"byteOffset":2400984},{"target":34962,"buffer":0,"byteLength":1488,"byteOffset":2402448},{"target":34963,"buffer":0,"byteLength":1464,"byteOffset":2403936}],"buffers":[{"byteLength":2405400,"uri":"data:application/octet-stream;base64,"}]}