<?xml version="1.0" encoding="utf-8"?>
<!-- Generator: Adobe Illustrator 27.0.1, SVG Export Plug-In . SVG Version: 6.00 Build 0)  -->
<svg version="1.1" id="Layer_1" xmlns="http://www.w3.org/2000/svg" xmlns:xlink="http://www.w3.org/1999/xlink" x="0px" y="0px"
	 viewBox="0 0 370 110" style="enable-background:new 0 0 370 110;" xml:space="preserve">
<style type="text/css">
	.st0{fill:#FF5E00;}
	.st1{fill:#1800E7;}
	.st2{fill:none;}
</style>
<g transform="translate(-13110.609 -11299.428)">
	<path class="st0" d="M13139,11348.9c0,7.9-6.4,14.2-14.2,14.2c-7.9,0-14.2-6.4-14.2-14.2c0-7.9,6.4-14.2,14.2-14.2
		C13132.7,11334.7,13139,11341,13139,11348.9L13139,11348.9"/>
	<path class="st0" d="M13177.1,11348.9c0,7.9-6.4,14.2-14.2,14.2s-14.2-6.4-14.2-14.2c0-7.9,6.4-14.2,14.2-14.2
		S13177.1,11341,13177.1,11348.9L13177.1,11348.9"/>
	<path class="st0" d="M13139,11348.9c0,7.9-6.4,14.2-14.2,14.2c-7.9,0-14.2-6.4-14.2-14.2c0-7.9,6.4-14.2,14.2-14.2
		C13132.7,11334.7,13139,11341,13139,11348.9L13139,11348.9"/>
	<path class="st0" d="M13111.8,11377.4c0,17.7,14.4,32.1,32.1,32.1c17.7,0,32.1-14.4,32.1-32.1v-4.6h-64.2V11377.4z"/>
	<rect x="13460.2" y="11336.2" class="st1" width="20.4" height="72.1"/>
	<path class="st1" d="M13259.4,11372.8c0,9-7.2,16.2-16.2,16.3c-9,0-16.2-7.2-16.3-16.2c0,0,0,0,0-0.1v-36.6h-20.4v36.6
		c0,20.2,16.4,36.6,36.6,36.6c20.2,0,36.6-16.4,36.6-36.6v-36.6h-20.4L13259.4,11372.8z"/>
	<rect x="13377.4" y="11336.2" class="st1" width="20.4" height="72.1"/>
	<path class="st1" d="M13327.5,11335c-20.2,0-36.6,16.4-36.6,36.6v36.6h20.4v-36.6c0-9,7.2-16.2,16.2-16.3c9,0,16.2,7.2,16.3,16.2
		c0,0,0,0,0,0.1v36.6h20.4v-36.6C13364.1,11351.4,13347.7,11335,13327.5,11335"/>
	<path class="st1" d="M13432,11336.1c0-9,7.3-16.2,16.2-16.2v-20.4c-20.2,0-36.6,16.4-36.6,36.6v72.2h20.4v-51.7h16.2v-20.4
		L13432,11336.1L13432,11336.1z"/>
	<rect x="13110.6" y="11299.4" class="st2" width="370" height="110"/>
</g>
</svg>
